<svg width="49" height="24" viewBox="0 0 49 24" fill="none" xmlns="http://www.w3.org/2000/svg">
<path d="M10.0994 7.35186C10.5709 7.18892 11.0738 7.10202 11.5955 7.10202C13.8795 7.10202 15.7863 8.78356 16.2221 11.0191L19.4595 10.3348C18.7177 6.53716 15.4783 3.6781 11.5955 3.6781C10.705 3.6781 9.85219 3.82801 9.05176 4.10609L10.0994 7.35186Z" fill="white"/>
<path d="M6.27973 18.2276L8.4694 15.6618C7.49296 14.7645 6.87691 13.4545 6.87691 11.9946C6.87691 10.5368 7.49296 9.22676 8.4694 8.33167L6.27973 5.76373C4.6202 7.28885 3.57251 9.5157 3.57251 11.9946C3.57251 14.4756 4.6202 16.7025 6.27973 18.2276" fill="#EEEEEE"/>
<path d="M16.2221 12.9766C15.7842 15.2099 13.8795 16.8893 11.5976 16.8893C11.0738 16.8893 10.5688 16.8024 10.0994 16.6373L9.05176 19.8874C9.85219 20.1633 10.7071 20.3132 11.5976 20.3132C15.4762 20.3132 18.7135 17.4585 19.4595 13.6653L16.2221 12.9766Z" fill="#DDDDDD"/>
<path d="M22.2904 15.7683C22.1836 15.5901 22.0411 15.3055 21.9531 15.0948C21.4397 13.8608 21.4166 12.5833 21.8483 11.358C22.3239 10.0132 23.2333 8.98561 24.4088 8.45986C25.8861 7.80158 27.5184 7.92976 28.9349 8.80094C29.8338 9.33539 30.4708 10.161 30.9548 11.3298C31.0156 11.4797 31.07 11.6383 31.1245 11.7751L22.2904 15.7683ZM25.2407 10.4434C24.1909 10.9105 23.6503 11.9316 23.7635 13.1265L28.2057 11.1429C27.4409 10.2131 26.4476 9.90459 25.2407 10.4434V10.4434ZM28.7588 14.758C28.7567 14.758 28.7567 14.7602 28.7567 14.7602L28.6645 14.695C28.3984 15.1404 27.9856 15.5032 27.4639 15.7378C26.4707 16.1854 25.5508 16.0702 24.8887 15.4685L24.8279 15.564C24.8279 15.564 24.8279 15.5619 24.8258 15.5619L23.6985 17.3108C23.9793 17.5128 24.2789 17.6823 24.5932 17.8191C25.8379 18.3558 27.1119 18.3297 28.367 17.7648C29.2743 17.3564 29.9867 16.735 30.4729 15.9464L28.7588 14.758ZM34.211 5.88757V15.6075L35.6694 16.2202L34.8417 18.2232L33.2325 17.528C32.8721 17.3651 32.6248 17.1174 32.4404 16.8372C32.2623 16.5525 32.1303 16.1593 32.1303 15.6336V5.88757H34.211ZM37.9869 13.133C37.9869 12.3052 38.341 11.5622 38.8984 11.0582L37.4023 9.32887C36.3881 10.2587 35.749 11.6165 35.749 13.1286C35.7469 14.6429 36.386 16.0029 37.3981 16.9327L38.8921 15.2034C38.3368 14.6972 37.9869 13.9585 37.9869 13.133V13.133ZM40.6438 15.8899C40.3505 15.8899 40.0655 15.8378 39.8015 15.7465L39.0869 17.9473C39.5752 18.1168 40.0969 18.2102 40.6417 18.2102C43.0095 18.2124 44.9854 16.47 45.4443 14.1562L43.2484 13.6913C42.999 14.9492 41.9283 15.8921 40.6438 15.8899V15.8899ZM40.6501 8.05576C40.1074 8.05576 39.5856 8.14701 39.0974 8.3143L39.8057 10.5172C40.0718 10.426 40.3546 10.376 40.648 10.376C41.9346 10.3782 43.0074 11.3254 43.2504 12.5855L45.4464 12.1249C44.9959 9.80683 43.02 8.05794 40.6501 8.05576V8.05576Z" fill="white"/>
</svg>
